<svg width="14" height="11" viewBox="0 0 14 11" fill="none" xmlns="http://www.w3.org/2000/svg">
<path fill-rule="evenodd" clip-rule="evenodd" d="M6.11958 0.968084C5.92905 0.777566 5.62021 0.777566 5.42968 0.968084L0.876328 5.52139C0.784806 5.61285 0.733419 5.73696 0.733419 5.86634C0.733419 5.99572 0.784806 6.11983 0.876328 6.21135L5.42968 10.7647C5.62021 10.9552 5.92905 10.9552 6.11958 10.7647C6.3101 10.5742 6.3101 10.2653 6.11958 10.0747L2.3991 6.3542L12.9299 6.3542C13.1993 6.3542 13.4178 6.13577 13.4178 5.86634C13.4178 5.59691 13.1993 5.37848 12.9299 5.37848L2.3991 5.37848L6.11958 1.65802C6.3101 1.4675 6.3101 1.15861 6.11958 0.968084Z" fill="black"/>
</svg>
