<svg width="666" height="345" viewBox="0 0 666 345" fill="none" xmlns="http://www.w3.org/2000/svg">
<path d="M-0.358591 324.539C-2.97155 332.647 1.4834 341.338 9.59181 343.951C17.7002 346.564 26.3916 342.109 29.0046 334.001L-0.358591 324.539ZM160.31 158.492L158.032 173.748L160.31 158.492ZM273.244 289.054L271.796 304.411L273.244 289.054ZM341.004 53.2709L337.717 38.2001L341.004 53.2709ZM547.59 113.869L537.617 102.102L547.59 113.869ZM647.171 14.3512C646.061 5.9048 638.314 -0.0426521 629.868 1.06723L492.225 19.1537C483.779 20.2636 477.831 28.0105 478.941 36.457C480.051 44.9034 487.798 50.8508 496.244 49.741L618.593 33.6641L634.67 156.013C635.78 164.459 643.527 170.407 651.973 169.297C660.42 168.187 666.367 160.44 665.257 151.994L647.171 14.3512ZM14.323 329.27C29.0046 334.001 29.0038 334.003 29.0032 334.005C29.0033 334.005 29.0029 334.006 29.0031 334.005C29.0035 334.004 29.0048 334 29.007 333.993C29.0114 333.98 29.0194 333.955 29.0309 333.92C29.0539 333.849 29.0912 333.736 29.1425 333.58C29.2452 333.269 29.4042 332.792 29.6186 332.159C30.0473 330.893 30.6971 329.008 31.5601 326.596C33.287 321.77 35.8626 314.847 39.2239 306.562C45.9666 289.944 55.7765 268.083 68.1253 246.748C80.5651 225.256 95.0929 205.159 110.999 191.36C126.856 177.602 142.449 171.42 158.032 173.748L162.589 143.236C134.783 139.083 110.433 151.008 90.7823 168.057C71.1806 185.063 54.6351 208.471 41.4252 231.293C28.1243 254.273 17.708 277.536 10.6371 294.964C7.0915 303.702 4.36333 311.033 2.51321 316.204C1.5877 318.79 0.880664 320.84 0.399726 322.26C0.159223 322.97 -0.024848 323.522 -0.151527 323.906C-0.21487 324.098 -0.263876 324.247 -0.298424 324.353C-0.315698 324.406 -0.329358 324.448 -0.339391 324.479C-0.344407 324.495 -0.348516 324.507 -0.351717 324.517C-0.353316 324.522 -0.355038 324.527 -0.355837 324.53C-0.357327 324.535 -0.358591 324.539 14.323 329.27ZM158.032 173.748C169.517 175.463 177.302 181.376 183.971 190.994C191.135 201.323 196.234 214.769 202.174 230.563C207.757 245.411 214.201 262.685 224.171 276.438C234.729 291.002 249.72 302.329 271.796 304.411L274.692 273.697C263.209 272.614 255.638 267.283 249.148 258.33C242.068 248.565 236.975 235.461 231.049 219.704C225.48 204.894 219.098 187.509 209.322 173.413C199.053 158.606 184.442 146.5 162.589 143.236L158.032 173.748ZM271.796 304.411C286.601 305.808 299.837 302.834 309.932 293.887C319.627 285.296 324.056 273.248 326.103 261.535C330.091 238.713 326.344 208.222 323.113 180.412C319.7 151.045 316.656 123.518 319.62 102.104C321.072 91.6066 323.823 83.9416 327.634 78.6646C331.156 73.7883 336.16 70.1152 344.291 68.3416L337.717 38.2001C322.447 41.5306 310.763 49.3348 302.625 60.601C294.777 71.4665 290.896 84.6091 289.061 97.8757C285.447 123.991 289.197 155.82 292.469 183.972C295.921 213.68 298.746 238.869 295.713 256.224C294.25 264.598 291.769 268.762 289.471 270.799C287.574 272.48 283.732 274.55 274.692 273.697L271.796 304.411ZM344.291 68.3416C354.636 66.0854 368.384 68.9825 386.18 76.8977C403.722 84.7 422.124 95.8939 441.639 107.149C460.455 118.002 480.572 129.072 499.467 134.49C518.624 139.984 539.944 140.571 557.564 125.636L537.617 102.102C531.262 107.489 522.448 108.987 507.971 104.835C493.231 100.608 476.213 91.4772 457.052 80.4258C438.59 69.7772 418.175 57.3643 398.717 48.7099C379.513 40.1685 358.078 33.7592 337.717 38.2001L344.291 68.3416ZM557.564 125.636C572.307 113.14 594.253 87.63 611.769 66.3342C620.705 55.469 628.781 45.3368 634.62 37.9245C637.541 34.2161 639.907 31.1831 641.546 29.073C642.365 28.0179 643.003 27.1931 643.438 26.6298C643.655 26.3481 643.822 26.1316 643.935 25.9844C643.992 25.9108 644.035 25.8545 644.065 25.8159C644.08 25.7966 644.091 25.7818 644.099 25.7715C644.103 25.7663 644.106 25.7623 644.108 25.7594C644.109 25.7579 644.11 25.7566 644.111 25.7559C644.112 25.7548 644.112 25.754 631.877 16.3608C619.642 6.96763 619.642 6.96744 619.642 6.96753C619.642 6.96794 619.641 6.96832 619.641 6.96914C619.64 6.97077 619.637 6.97353 619.634 6.97741C619.628 6.98518 619.619 6.99744 619.606 7.01412C619.581 7.04748 619.541 7.09855 619.489 7.16683C619.384 7.30341 619.225 7.50887 619.017 7.77936C618.599 8.32035 617.979 9.12135 617.18 10.1515C615.579 12.2122 613.258 15.1884 610.386 18.8341C604.639 26.1298 596.704 36.0851 587.943 46.7373C570.063 68.4761 549.865 91.7206 537.617 102.102L557.564 125.636Z" fill="#2E95F4"/>
</svg>
