<svg width="33" height="30" viewBox="0 0 33 30" fill="none" xmlns="http://www.w3.org/2000/svg">
<path d="M30.375 15C30.375 23.2843 23.6593 30 15.375 30C7.09073 30 0.375 23.2843 0.375 15C0.375 6.71573 7.09073 0 15.375 0C23.6593 0 30.375 6.71573 30.375 15Z" fill="#B2DAFF" fill-opacity="0.6"/>
<path d="M13.2439 20.3571C12.9438 20.3571 12.6586 20.2376 12.4485 20.0283L8.20141 15.7979C7.7662 15.3644 7.7662 14.6468 8.20141 14.2133C8.63663 13.7798 9.35699 13.7798 9.79221 14.2133L13.2439 17.6515L20.9578 9.96799C21.393 9.53448 22.1134 9.53448 22.5486 9.96799C22.9838 10.4015 22.9838 11.119 22.5486 11.5525L14.0393 20.0283C13.8292 20.2376 13.5441 20.3571 13.2439 20.3571Z" fill="#0085FF"/>
</svg>
