<svg width="42" height="42" viewBox="0 0 42 42" fill="none" xmlns="http://www.w3.org/2000/svg">
<g clip-path="url(#clip0_942_1187)">
<mask id="mask0_942_1187" style="mask-type:luminance" maskUnits="userSpaceOnUse" x="0" y="0" width="42" height="42">
<path d="M42 0H0V42H42V0Z" fill="white"/>
</mask>
<g mask="url(#mask0_942_1187)">
<mask id="mask1_942_1187" style="mask-type:luminance" maskUnits="userSpaceOnUse" x="0" y="0" width="42" height="42">
<path d="M42 0H0V42H42V0Z" fill="white"/>
</mask>
<g mask="url(#mask1_942_1187)">
<mask id="mask2_942_1187" style="mask-type:luminance" maskUnits="userSpaceOnUse" x="5" y="8" width="32" height="26">
<path d="M36.75 8.75H5.25V33.1515H36.75V8.75Z" fill="white"/>
</mask>
<g mask="url(#mask2_942_1187)">
<path d="M31.9161 10.9229C29.9084 10.0017 27.7553 9.32297 25.5043 8.93424C25.4634 8.92675 25.4224 8.9455 25.4012 8.983C25.1244 9.47547 24.8176 10.1179 24.6029 10.6229C22.1818 10.2604 19.7731 10.2604 17.4015 10.6229C17.1867 10.1067 16.8689 9.47547 16.5907 8.983C16.5696 8.94676 16.5287 8.928 16.4877 8.93424C14.2379 9.32173 12.0849 10.0004 10.076 10.9229C10.0586 10.9304 10.0437 10.9429 10.0338 10.9592C5.95006 17.0601 4.83138 23.0112 5.38018 28.8884C5.38264 28.9171 5.3988 28.9446 5.42114 28.9621C8.11546 30.9408 10.7254 32.142 13.2868 32.9383C13.3278 32.9507 13.3712 32.9356 13.3973 32.9019C14.0032 32.0745 14.5433 31.2021 15.0064 30.2846C15.0338 30.2308 15.0077 30.1671 14.9518 30.1458C14.0951 29.8208 13.2793 29.4246 12.4946 28.9747C12.4326 28.9385 12.4276 28.8496 12.4847 28.807C12.6498 28.6833 12.815 28.5547 12.9727 28.4247C13.0012 28.4009 13.041 28.396 13.0745 28.4108C18.2297 30.7646 23.8108 30.7646 28.9051 28.4108C28.9387 28.3946 28.9784 28.3996 29.0082 28.4234C29.1658 28.5535 29.331 28.6833 29.4975 28.807C29.5545 28.8496 29.5508 28.9385 29.4887 28.9747C28.704 29.4334 27.8882 29.8208 27.0303 30.1446C26.9745 30.1657 26.9496 30.2308 26.9769 30.2846C27.45 31.2007 27.99 32.0732 28.5848 32.9006C28.6097 32.9356 28.6543 32.9507 28.6953 32.9383C31.2692 32.142 33.8791 30.9408 36.5734 28.9621C36.597 28.9446 36.6119 28.9183 36.6144 28.8896C37.2711 22.0949 35.5143 16.1927 31.9571 10.9604C31.9483 10.9429 31.9335 10.9304 31.9161 10.9229ZM15.7763 25.3098C14.2242 25.3098 12.9454 23.8848 12.9454 22.135C12.9454 20.385 14.1994 18.9601 15.7763 18.9601C17.3655 18.9601 18.6321 20.3974 18.6072 22.135C18.6072 23.8848 17.3531 25.3098 15.7763 25.3098ZM26.2432 25.3098C24.6911 25.3098 23.4122 23.8848 23.4122 22.135C23.4122 20.385 24.6662 18.9601 26.2432 18.9601C27.8323 18.9601 29.0988 20.3974 29.074 22.135C29.074 23.8848 27.8323 25.3098 26.2432 25.3098Z" fill="#2E95F4"/>
</g>
</g>
</g>
</g>
<defs>
<clipPath id="clip0_942_1187">
<rect width="42" height="42" fill="white"/>
</clipPath>
</defs>
</svg>
