<svg width="104" height="26" viewBox="0 0 104 26" fill="none" xmlns="http://www.w3.org/2000/svg">
<g clip-path="url(#clip0_52_414)">
<g clip-path="url(#clip1_52_414)">
<path d="M102.24 17.1606C101.919 16.9331 101.666 16.9011 101.455 17.3346C97.8587 24.9743 91.8005 21.1605 92.407 21.4953C93.7535 20.8888 97.2852 18.114 96.7549 14.2674C96.4352 11.9157 94.3825 10.8758 92.1983 11.2547C88.3911 11.9054 87.0004 15.9364 87.7066 19.5019C87.8279 20.1197 88.0488 20.618 88.2801 21.1164C83.9887 24.5512 82.2784 18.0501 82.079 17.2697C82.0687 17.2264 85.401 14.5062 86.3281 8.01452C87.2985 1.22007 85.0917 -0.0267376 82.8293 0.0165152C78.6479 0.0926777 77.5215 8.66519 79.0334 15.8057C78.9121 15.8386 78.317 16.1639 77.3682 16.1959C76.6837 14.0831 73.7594 12.2298 72.9978 12.9453C71.089 14.7337 73.4614 18.2222 75.1388 18.4939C74.1337 24.5728 67.8451 23.0674 69.0148 15.4484C71.0561 11.7202 72.6226 6.16123 72.3359 2.81196C72.2362 1.63097 71.342 0.0381416 69.3232 0.114304C65.4389 0.265689 65.0205 8.8382 65.4718 14.9284C65.4502 14.777 65.2292 15.6656 63.6402 16.1094C63.265 14.0614 59.8997 11.9919 59.1061 12.9886C57.6261 14.8419 60.1978 18.1479 61.4117 18.3745C60.4075 24.4543 54.118 22.948 55.2867 15.3299C57.3403 11.6017 58.8955 6.0531 58.62 2.70477C58.5213 1.52284 57.6261 -0.0699904 55.6074 0.00617212C51.7231 0.157557 51.3037 8.73007 51.756 14.8193C51.7344 14.6679 51.5134 15.5894 49.8576 16.0229C49.804 13.3572 46.4265 12.1433 45.6103 12.9886C44.1642 14.5062 45.9413 17.6166 47.5859 18.3745C46.5816 24.4543 40.2912 22.948 41.4609 15.3299C43.5022 11.6017 45.0697 6.04182 44.7829 2.69349C44.6945 1.52284 43.8003 -0.0699904 41.7806 0.00617212C37.8972 0.157557 37.5879 9.1626 38.0411 15.2528C36.7604 20.6396 32.4681 27.3589 33.0304 13.8884C33.0858 12.9453 33.1413 12.5871 32.6665 12.2298C32.3026 11.9599 31.4864 12.0887 31.0445 12.1C30.5038 12.1226 30.3609 12.4357 30.2509 12.9021C29.9745 14.116 29.919 15.297 29.8748 16.9114C29.8532 17.6702 29.7873 18.0172 29.4883 19.0468C29.1903 20.0764 27.5137 21.9504 26.5866 21.6363C25.3069 21.2029 25.7253 17.6599 25.9689 15.2208C26.1673 13.2923 25.5279 12.4366 23.8946 12.1217C22.9346 11.927 22.3497 11.9599 21.3568 11.6449C20.4071 11.3525 20.1974 9.59607 18.19 10.1819C17.0861 10.5072 17.7922 12.793 17.5271 14.4949C16.2257 22.8502 13.5224 23.0778 12.2634 19.0242C17.9135 5.41371 13.8863 0.0494249 11.5356 0.0494249C9.08618 0.0494249 6.28322 1.70714 7.46326 12.3276C6.89064 12.1658 6.71386 12.0784 6.07353 12.0784C2.50988 12.0671 0.0708008 14.9068 0.0708008 18.4065C0.0708008 21.9071 2.50988 24.7468 6.08482 24.7468C8.19198 24.7468 9.67104 23.8046 10.7965 22.3519C11.5253 23.3815 12.4185 24.7684 14.0518 24.7035C18.9064 24.5192 20.3187 14.7337 20.4852 14.1809C21.0033 14.257 21.4997 14.4084 21.9746 14.4846C22.7691 14.604 22.8349 14.918 22.8124 15.6975C22.6036 22.3519 23.8495 24.6819 26.6863 24.6819C28.2641 24.6819 29.6764 23.1539 30.6468 22.0698C31.3755 23.5441 32.5226 24.6377 34.0788 24.6819C37.8305 24.7684 39.2766 18.8945 39.144 19.6646C39.0444 20.271 40.3579 24.6377 44.2309 24.6593C49.0198 24.6819 49.913 19.5122 50.0127 18.6453C50.024 18.4723 50.0343 18.4939 50.0127 18.6453V18.6998C51.536 18.4178 52.3192 17.627 52.3192 17.627C52.3192 17.627 53.5435 24.7468 58.0577 24.6706C62.7469 24.5841 63.6402 19.9137 63.7511 19.0026C63.7615 18.7863 63.7727 18.808 63.7511 19.0026V19.0242C65.5611 18.3745 66.035 17.7351 66.035 17.7351C66.035 17.7351 67.0063 24.7148 71.7726 24.7787C76.0217 24.8333 77.5986 20.5531 77.6108 18.7647C78.3273 18.7751 79.6521 18.3416 79.6183 18.3209C79.6183 18.3209 81.1745 24.4224 85.5223 24.7355C87.5636 24.8878 89.0972 23.609 89.9689 23.0242C92.0215 24.6593 98.8517 26.7411 103.166 19.5555C103.784 18.5372 102.471 17.3129 102.24 17.1606ZM5.90805 22.3735C3.82251 22.3735 2.48731 20.477 2.48731 18.4394C2.48731 16.4018 3.71156 14.5053 5.79803 14.5053C6.73549 14.5053 7.25452 14.603 7.99358 15.2312C8.12522 15.7408 8.50133 16.9227 8.68845 17.4634C8.93104 18.1789 9.22911 18.7967 9.51589 19.4586C9.08618 21.1699 7.71808 22.3735 5.90805 22.3735ZM10.9837 15.2857C10.8953 15.1446 10.9178 15.2312 10.8191 15.1014C10.443 14.0831 9.70395 11.8067 9.61556 9.21713C9.51589 6.29099 10.0133 2.85615 11.4801 2.85615C12.474 2.85615 13.5328 9.81327 10.9837 15.2857ZM40.3467 12.2401C40.1153 10.5072 40.1041 2.75837 41.9903 2.97463C43.0387 3.38647 41.3292 10.6915 40.3467 12.2401ZM54.1725 12.2401C53.9412 10.5072 53.9299 2.75837 55.818 2.97463C56.8655 3.38647 55.1551 10.6915 54.1725 12.2401ZM67.8893 12.3492C67.657 10.6153 67.6467 2.8665 69.5329 3.0837C70.5804 3.48426 68.8709 10.7996 67.8893 12.3492ZM83.0277 2.50919C84.7607 2.33524 84.6836 9.75873 81.2187 14.4404C80.7654 12.7498 80.0819 3.09404 83.0277 2.50919ZM90.3111 18.4939C89.7592 15.7304 91.1941 13.9204 92.6722 13.7258C93.1912 13.6496 93.9416 13.974 94.0845 14.5927C94.3271 15.7521 94.0516 17.4747 90.7305 19.6533C90.7408 19.6646 90.4324 19.1004 90.3111 18.4939ZM31.6181 9.97594C32.799 9.97594 33.7591 9.03284 33.7591 7.87348C33.7591 6.71411 32.799 5.77196 31.6181 5.77196C30.438 5.77196 29.477 6.71411 29.477 7.87348C29.477 9.03284 30.438 9.97594 31.6181 9.97594Z" fill="black"/>
</g>
</g>
<defs>
<clipPath id="clip0_52_414">
<rect width="103.431" height="25.3875" fill="white" transform="translate(0.0708008 0.00354004)"/>
</clipPath>
<clipPath id="clip1_52_414">
<rect width="103.431" height="25.3875" fill="white" transform="translate(0.0708008 0.00354004)"/>
</clipPath>
</defs>
</svg>
