<svg width="83" height="19" viewBox="0 0 83 19" fill="none" xmlns="http://www.w3.org/2000/svg">
<path d="M34.1013 2.79004V16.9191H31.0538V5.75761L27.3391 8.05915V5.65683L31.9411 2.79004H34.1013Z" fill="white"/>
<path d="M50.4115 5.29412H45.0613V16.9212H41.8122V5.29412H36.462V2.79102H50.4104V5.29412H50.4115Z" fill="white"/>
<path d="M57.8791 5.2318L53.8829 14.416H58.0621V16.9191H49.3423L55.8832 2.79004H59.8794L66.4203 16.9191H62.9478L57.8813 5.2318H57.8791Z" fill="white"/>
<path d="M83 7.53407C83 10.7437 80.8606 12.319 76.9641 12.319H71.8976V16.921H68.6277V9.85643H76.7625C78.6598 9.85643 79.6687 9.08852 79.6687 7.53627C79.6687 5.98401 78.6587 5.27526 76.7625 5.27526H68.6277V2.79297H77.3475C81.2023 2.79297 82.9989 4.69029 82.9989 7.53627V7.53407H83Z" fill="white"/>
<path d="M15.2256 6.06879L12.4366 0H5.66895H2.82407L0.706565 4.60637L0 6.14547H8.49411L11.3182 12.2931L11.8418 13.4302L14.1444 18.4408H20.9121L18.6084 13.4302L18.087 12.2931L15.2607 6.14547H15.1895L15.2256 6.06879Z" fill="white"/>
<path d="M15.7518 6.58108L15.7896 6.66424H23.0076L26.0511 0H18.7564L15.7518 6.58108Z" fill="#2E95F4"/>
</svg>
