<svg width="133" height="17" viewBox="0 0 133 17" fill="none" xmlns="http://www.w3.org/2000/svg">
<g clip-path="url(#clip0_52_422)">
<g clip-path="url(#clip1_52_422)">
<path d="M10.7526 8.87354H2.43209V15.8776H0.287598V1.02834H2.43303V6.84788H10.7526V1.02834H12.898V15.8992H10.7526V8.87354ZM26.1573 0.812378C30.4038 0.812378 33.6328 4.11021 33.6328 8.46332C33.6328 12.7957 30.3821 16.1143 26.1573 16.1143C21.9324 16.1143 18.6827 12.8174 18.6827 8.46332C18.7044 4.11021 21.9541 0.812378 26.1573 0.812378ZM26.1573 14.0669C29.2127 14.0669 31.509 11.6536 31.509 8.42088C31.509 5.18811 29.2344 2.77392 26.1573 2.77392C23.081 2.77392 20.8055 5.18811 20.8055 8.42088C20.8488 11.6961 23.1244 14.0669 26.1573 14.0669ZM40.5661 15.8992V1.02834H45.0503C47.4126 1.02834 48.9507 1.54513 50.1644 2.42876C52.0062 3.78675 53.1539 5.98499 53.1539 8.48501C53.1539 10.9426 52.0052 13.1833 50.1644 14.5413C48.9507 15.4249 47.3909 15.9426 45.0069 15.9426H40.5661V15.8992ZM49.211 4.28279C48.2576 3.48497 47.0439 3.03231 44.9427 3.03231H42.6889V13.8736H44.9427C47.0439 13.8736 48.2576 13.4426 49.211 12.6231C50.3587 11.632 51.0094 10.1231 51.0094 8.44257C51.0311 6.78281 50.3587 5.27393 49.211 4.28279ZM60.0438 1.02834H62.1892V15.8992H60.0438V1.02834ZM72.1987 4.97216V15.8992H70.0542V1.02834H71.5706L80.5626 11.9554V1.02834H82.7071V15.8992H81.1906L72.1987 4.97216ZM90.5504 1.02834H92.6958V7.2996L98.8482 1.02834H101.687L94.9487 7.92484L102.141 15.8776H99.4122L92.7382 8.44257V15.8776H90.5721V1.02834H90.5504ZM115.424 6.84788V8.87354H110.527V13.8519H117.157V15.8776H108.382V1.02834H116.941V3.054H110.527V6.86862H115.424V6.84788ZM131.154 6.84788V8.87354H126.257V13.8519H132.887V15.8776H124.112V1.02834H132.671V3.054H126.257V6.86862H131.154V6.84788Z" fill="black"/>
</g>
</g>
<defs>
<clipPath id="clip0_52_422">
<rect width="132.579" height="15.9847" fill="white" transform="translate(0.287598 0.704834)"/>
</clipPath>
<clipPath id="clip1_52_422">
<rect width="132.579" height="15.615" fill="white" transform="translate(0.287598 0.704834)"/>
</clipPath>
</defs>
</svg>
