<svg width="32" height="33" viewBox="0 0 32 33" fill="none" xmlns="http://www.w3.org/2000/svg">
<g clip-path="url(#clip0_52_479)">
<path fill-rule="evenodd" clip-rule="evenodd" d="M26.4608 7.67702C26.4608 8.73752 25.601 9.59702 24.5408 9.59702C23.4805 9.59702 22.6208 8.73752 22.6208 7.67702C22.6208 6.61652 23.4805 5.75702 24.5408 5.75702C25.6012 5.75702 26.4608 6.61652 26.4608 7.67702ZM16 21.551C13.0545 21.551 10.6667 19.1633 10.6667 16.2178C10.6667 13.2723 13.0545 10.8845 16 10.8845C18.9455 10.8845 21.3333 13.2723 21.3333 16.2178C21.3333 19.1633 18.9455 21.551 16 21.551ZM16 8.00152C11.4622 8.00152 7.78375 11.68 7.78375 16.2178C7.78375 20.7555 11.4622 24.434 16 24.434C20.5378 24.434 24.2162 20.7555 24.2162 16.2178C24.2162 11.68 20.5378 8.00152 16 8.00152ZM16 3.10077C20.2723 3.10077 20.7782 3.11702 22.4653 3.19402C24.0252 3.26527 24.8725 3.52577 25.4363 3.74502C26.183 4.03527 26.716 4.38202 27.276 4.94202C27.836 5.50177 28.1827 6.03477 28.473 6.78177C28.692 7.34552 28.9527 8.19277 29.024 9.75277C29.101 11.44 29.1173 11.946 29.1173 16.2183C29.1173 20.4905 29.101 20.9965 29.024 22.6835C28.9527 24.2435 28.6922 25.0908 28.473 25.6545C28.1827 26.4013 27.836 26.9343 27.276 27.4943C26.7162 28.0543 26.1833 28.401 25.4363 28.6913C24.8725 28.9103 24.0252 29.171 22.4653 29.2423C20.7782 29.3193 20.2723 29.3355 16 29.3355C11.7275 29.3355 11.2215 29.3193 9.5345 29.2423C7.9745 29.171 7.12725 28.9105 6.5635 28.6913C5.81675 28.401 5.28375 28.0543 4.72375 27.4943C4.164 26.9345 3.817 26.4015 3.52675 25.6545C3.30775 25.0908 3.047 24.2435 2.97575 22.6835C2.89875 20.9963 2.8825 20.4903 2.8825 16.2183C2.8825 11.946 2.89875 11.44 2.97575 9.75277C3.047 8.19277 3.3075 7.34552 3.52675 6.78177C3.817 6.03502 4.16375 5.50202 4.72375 4.94202C5.2835 4.38202 5.8165 4.03527 6.5635 3.74502C7.12725 3.52602 7.9745 3.26527 9.5345 3.19402C11.2218 3.11702 11.7277 3.10077 16 3.10077ZM16 0.217773C11.6547 0.217773 11.1097 0.236273 9.40325 0.314023C7.70025 0.391773 6.537 0.662273 5.5195 1.05777C4.46725 1.46652 3.575 2.01377 2.6855 2.90327C1.796 3.79277 1.24875 4.68502 0.84 5.73727C0.4445 6.75502 0.174 7.91802 0.09625 9.62102C0.0185 11.3275 0 11.8725 0 16.2178C0 20.563 0.0185 21.108 0.09625 22.8145C0.174 24.5175 0.4445 25.6805 0.84 26.6983C1.24875 27.7505 1.796 28.6428 2.6855 29.5323C3.575 30.4218 4.46725 30.9688 5.5195 31.3778C6.53725 31.7733 7.70025 32.0438 9.40325 32.1215C11.1097 32.1993 11.6547 32.2178 16 32.2178C20.3452 32.2178 20.8903 32.1993 22.5968 32.1215C24.2997 32.0438 25.4627 31.7733 26.4805 31.3778C27.5327 30.9688 28.425 30.4218 29.3145 29.5323C30.204 28.6428 30.751 27.7505 31.16 26.6983C31.5555 25.6805 31.826 24.5175 31.9037 22.8145C31.9815 21.108 32 20.563 32 16.2178C32 11.8725 31.9815 11.3275 31.9037 9.62102C31.826 7.91802 31.5555 6.75502 31.16 5.73727C30.751 4.68502 30.204 3.79277 29.3145 2.90327C28.425 2.01377 27.5327 1.46677 26.4805 1.05777C25.4627 0.662273 24.2997 0.391773 22.5968 0.314023C20.8903 0.236273 20.3452 0.217773 16 0.217773Z" fill="black"/>
</g>
<defs>
<clipPath id="clip0_52_479">
<rect width="32" height="32" fill="white" transform="translate(0 0.217773)"/>
</clipPath>
</defs>
</svg>
