<svg width="42" height="42" viewBox="0 0 42 42" fill="none" xmlns="http://www.w3.org/2000/svg">
<g clip-path="url(#clip0_942_1203)">
<mask id="mask0_942_1203" style="mask-type:luminance" maskUnits="userSpaceOnUse" x="0" y="0" width="42" height="42">
<path d="M42 0H0V42H42V0Z" fill="white"/>
</mask>
<g mask="url(#mask0_942_1203)">
<mask id="mask1_942_1203" style="mask-type:luminance" maskUnits="userSpaceOnUse" x="0" y="0" width="42" height="42">
<path d="M42 0H0V42H42V0Z" fill="white"/>
</mask>
<g mask="url(#mask1_942_1203)">
<path d="M21.0012 7C17.1991 7 16.7219 7.01662 15.2286 7.08458C13.7381 7.15283 12.7208 7.3888 11.8306 7.735C10.9098 8.09258 10.1287 8.57092 9.35056 9.34938C8.57182 10.1275 8.09347 10.9086 7.73472 11.8291C7.38762 12.7196 7.15138 13.7372 7.0843 15.227C7.0175 16.7204 7 17.1978 7 21C7 24.8022 7.01692 25.2779 7.08458 26.7711C7.15312 28.2616 7.3891 29.2789 7.735 30.1691C8.09289 31.09 8.57122 31.871 9.34969 32.6492C10.1276 33.428 10.9087 33.9075 11.8289 34.265C12.7196 34.6111 13.7373 34.8472 15.2274 34.9155C16.7208 34.9834 17.1977 35 20.9996 35C24.802 35 25.2777 34.9834 26.7711 34.9155C28.2616 34.8472 29.2801 34.6111 30.1709 34.265C31.0914 33.9075 31.8712 33.428 32.6492 32.6492C33.428 31.871 33.9062 31.09 34.265 30.1695C34.6092 29.2789 34.8455 28.2613 34.9155 26.7715C34.9825 25.2782 35 24.8022 35 21C35 17.1978 34.9825 16.7207 34.9155 15.2273C34.8455 13.7369 34.6092 12.7196 34.265 11.8294C33.9062 10.9086 33.428 10.1275 32.6492 9.34938C31.8703 8.57063 31.0915 8.0923 30.17 7.735C29.2775 7.3888 28.2595 7.15283 26.769 7.08458C25.2758 7.01662 24.8003 7 20.9968 7H21.0012ZM19.7454 9.52292C20.1182 9.52233 20.534 9.52292 21.0012 9.52292C24.7394 9.52292 25.1823 9.53633 26.6586 9.60342C28.0236 9.66583 28.7644 9.89392 29.2579 10.0855C29.9112 10.3393 30.377 10.6426 30.8667 11.1326C31.3567 11.6226 31.6601 12.0893 31.9144 12.7426C32.106 13.2355 32.3344 13.9764 32.3965 15.3414C32.4637 16.8172 32.4782 17.2605 32.4782 20.9968C32.4782 24.7331 32.4637 25.1764 32.3965 26.6521C32.3342 28.0171 32.106 28.7581 31.9144 29.2509C31.6606 29.9043 31.3567 30.3695 30.8667 30.8591C30.3767 31.3491 29.9115 31.6526 29.2579 31.9063C28.7649 32.0988 28.0236 32.3263 26.6586 32.3886C25.1827 32.4558 24.7394 32.4704 21.0012 32.4704C17.263 32.4704 16.8199 32.4558 15.3441 32.3886C13.9791 32.3256 13.2382 32.0976 12.7444 31.906C12.0911 31.6522 11.6244 31.349 11.1344 30.859C10.6444 30.369 10.3411 29.9035 10.0867 29.2498C9.89511 28.7569 9.66674 28.0161 9.60461 26.6511C9.53753 25.1751 9.52411 24.7319 9.52411 20.9933C9.52411 17.2547 9.53753 16.8137 9.60461 15.3379C9.66703 13.9729 9.89511 13.232 10.0867 12.7385C10.3405 12.0852 10.6444 11.6185 11.1344 11.1285C11.6244 10.6385 12.0911 10.3352 12.7444 10.0809C13.2379 9.88837 13.9791 9.66087 15.3441 9.59817C16.6356 9.53983 17.1361 9.52233 19.7454 9.51942V9.52292ZM28.4744 11.8475C27.5469 11.8475 26.7944 12.5991 26.7944 13.5269C26.7944 14.4544 27.5469 15.2069 28.4744 15.2069C29.4019 15.2069 30.1544 14.4544 30.1544 13.5269C30.1544 12.5994 29.4019 11.8475 28.4744 11.8475ZM21.0012 13.8104C17.0308 13.8104 13.8116 17.0295 13.8116 21C13.8116 24.9704 17.0308 28.1881 21.0012 28.1881C24.9718 28.1881 28.1899 24.9704 28.1899 21C28.1899 17.0295 24.9716 13.8104 21.0012 13.8104ZM21.0012 16.3333C23.5784 16.3333 25.6679 18.4226 25.6679 21C25.6679 23.5772 23.5784 25.6667 21.0012 25.6667C18.4238 25.6667 16.3346 23.5772 16.3346 21C16.3346 18.4226 18.4238 16.3333 21.0012 16.3333Z" fill="#2E95F4"/>
</g>
</g>
</g>
<defs>
<clipPath id="clip0_942_1203">
<rect width="42" height="42" fill="white"/>
</clipPath>
</defs>
</svg>
