<svg width="24" height="25" viewBox="0 0 24 25" fill="none" xmlns="http://www.w3.org/2000/svg">
<path opacity="0.4" d="M19.21 6.86001C18.17 4.76001 16.16 3.21001 13.83 2.70001C11.39 2.16001 8.88997 2.74001 6.97997 4.28001C5.05997 5.81001 3.96997 8.10001 3.96997 10.55C3.96997 13.14 5.51997 15.85 7.85997 17.42V18.25C7.84997 18.53 7.83997 18.96 8.17997 19.31C8.52997 19.67 9.04997 19.71 9.45997 19.71H14.59C15.13 19.71 15.54 19.56 15.82 19.28C16.2 18.89 16.19 18.39 16.18 18.12V17.42C19.28 15.33 21.23 10.92 19.21 6.86001Z" fill="#0F85F2"/>
<path d="M15.2599 22.4999C15.1999 22.4999 15.1299 22.4899 15.0699 22.4699C13.0599 21.8999 10.9499 21.8999 8.93991 22.4699C8.56991 22.5699 8.17991 22.3599 8.07991 21.9899C7.96991 21.6199 8.18991 21.2299 8.55991 21.1299C10.8199 20.4899 13.1999 20.4899 15.4599 21.1299C15.8299 21.2399 16.0499 21.6199 15.9399 21.9899C15.8399 22.2999 15.5599 22.4999 15.2599 22.4999Z" fill="#007EF1"/>
<path d="M12.0001 14.3499C11.8701 14.3499 11.7401 14.3199 11.6301 14.2499C11.2701 14.0399 11.1501 13.5799 11.3501 13.2299L12.2001 11.7499H11.3601C10.8601 11.7499 10.4501 11.5299 10.2301 11.1599C10.0101 10.7799 10.0301 10.3199 10.2801 9.8799L11.3501 8.0199C11.5601 7.6599 12.0201 7.5399 12.3701 7.7399C12.7301 7.9499 12.8501 8.4099 12.6501 8.7599L11.8001 10.2499H12.6401C13.1401 10.2499 13.5501 10.4699 13.7701 10.8399C13.9901 11.2199 13.9701 11.6799 13.7201 12.1199L12.6501 13.9799C12.5101 14.2199 12.2601 14.3499 12.0001 14.3499Z" fill="#007EF1"/>
</svg>
