<svg width="61" height="59" viewBox="0 0 61 59" fill="none" xmlns="http://www.w3.org/2000/svg">
<rect y="0.5" width="61" height="58" rx="29" fill="#F8F8F8"/>
<path d="M26.4907 37.7785H23.3066V26.5793H26.4907V37.7785ZM38.1656 37.7785H34.9815V31.7959C34.9815 30.237 34.4551 29.4609 33.4118 29.4609C32.585 29.4609 32.0607 29.8954 31.7975 30.7656C31.7975 32.1789 31.7975 37.7785 31.7975 37.7785H28.6134C28.6134 37.7785 28.6559 27.6993 28.6134 26.5793H31.1267L31.3209 28.8192H31.3867C32.0395 27.6993 33.0828 26.94 34.5135 26.94C35.6014 26.94 36.4812 27.2591 37.1531 28.061C37.8292 28.864 38.1656 29.9413 38.1656 31.4544V37.7785Z" fill="black"/>
<path d="M24.9 25.4594C25.8085 25.4594 26.5451 24.7073 26.5451 23.7795C26.5451 22.8517 25.8085 22.0996 24.9 22.0996C23.9914 22.0996 23.2549 22.8517 23.2549 23.7795C23.2549 24.7073 23.9914 25.4594 24.9 25.4594Z" fill="black"/>
</svg>
