<svg width="111" height="26" viewBox="0 0 111 26" fill="none" xmlns="http://www.w3.org/2000/svg">
<path d="M45.6923 4.47836V23.2028H41.6536V8.4111L36.7308 11.4612V8.27754L42.8295 4.47836H45.6923Z" fill="black"/>
<path d="M67.3071 7.79701H60.2169V23.2057H55.9111V7.79701H48.8208V4.47981H67.3057V7.79701H67.3071Z" fill="black"/>
<path d="M77.2036 7.71427L71.9077 19.8856H77.446V23.2028H65.8903L74.5585 4.47836H79.8544L88.5227 23.2028H83.9207L77.2065 7.71427H77.2036Z" fill="black"/>
<path d="M110.495 10.7658C110.495 15.0194 107.659 17.107 102.496 17.107H95.7813V23.2057H91.4479V13.8435H102.228C104.743 13.8435 106.08 12.8258 106.08 10.7687C106.08 8.71162 104.741 7.77235 102.228 7.77235H91.4479V4.48273H103.004C108.112 4.48273 110.493 6.99712 110.493 10.7687V10.7658H110.495Z" fill="black"/>
<path d="M20.6776 8.82338L16.9815 0.780792H8.0127H4.24256L1.43637 6.88532L0.5 8.92499H11.7567L15.4993 17.0721L16.1932 18.579L19.2447 25.2192H28.2135L25.1605 18.579L24.4695 17.0721L20.724 8.92499H20.6297L20.6776 8.82338Z" fill="black"/>
<path d="M21.3749 9.50228L21.425 9.61248H30.9905L35.0239 0.780792H25.3566L21.3749 9.50228Z" fill="#2E95F4"/>
</svg>
