<svg width="141" height="28" viewBox="0 0 141 28" fill="none" xmlns="http://www.w3.org/2000/svg">
<g clip-path="url(#clip0_52_410)">
<g clip-path="url(#clip1_52_410)">
<path d="M109.814 9.58417H106.519V21.1113H109.814V9.58417ZM109.814 5.78539H106.519V8.33422H109.814V5.78539ZM37.9319 5.78539H34.4867V21.1113H45.0065V18.1731H37.9319V5.78539ZM51.815 8.62578C48.1479 8.62578 45.2454 11.4408 45.2454 14.9894C45.2454 18.538 48.1479 21.3614 51.815 21.3614C55.4821 21.3614 58.409 18.5455 58.409 14.995C58.409 11.4445 55.5047 8.62578 51.815 8.62578ZM51.815 18.3188C49.9697 18.3188 48.5918 16.924 48.5918 14.98C48.5918 13.0359 49.9697 11.6524 51.815 11.6524C53.6612 11.6524 55.0382 13.0716 55.0382 14.98C55.0382 16.8892 53.6612 18.3188 51.815 18.3188ZM72.2329 18.5154C71.6413 18.5154 71.1249 18.1731 71.1249 17.1206V12.2261H74.2682V9.58417H71.1249V6.26224H67.8293V9.58417H63.501V6.26224H60.2045V9.58417H58.409V12.2261H60.2045V17.1695C60.2045 19.9356 61.5334 21.3558 63.992 21.3558C65.1027 21.3586 66.189 21.036 67.1173 20.4284L66.1853 18.0056C65.7188 18.3198 65.1723 18.4975 64.6099 18.5192C64.0183 18.5192 63.502 18.1768 63.502 17.1244V12.2261H67.8312V17.1695C67.8312 19.9356 69.1583 21.3558 71.6187 21.3558C72.7295 21.3577 73.8158 21.0351 74.7441 20.4284L73.812 18.0056C73.3436 18.3198 72.7962 18.4966 72.2329 18.5154ZM93.0711 14.1279C92.568 10.6865 89.5536 8.25239 86.2401 8.733C84.5584 8.96155 83.0395 9.85504 82.0256 11.2113C81.0127 12.5675 80.5913 14.2736 80.8565 15.9431C81.4397 19.9403 84.8952 21.7913 88.4485 21.2758C90.0577 21.0511 91.5644 20.3607 92.7824 19.2895L91.224 17.1394C90.3342 17.905 89.2413 18.3978 88.077 18.5606C86.4696 18.7919 84.9657 18.19 84.3318 16.5798L93.169 15.2997C93.1577 14.9075 93.1257 14.5163 93.0711 14.1279ZM83.9669 14.4298C84.059 12.8581 85.1293 11.6637 86.5411 11.4615C88.0243 11.232 89.4473 12.1349 89.8649 13.5711L83.9669 14.4298ZM128.853 14.1279C128.349 10.6865 125.333 8.25239 122.022 8.733C120.34 8.96155 118.82 9.8541 117.807 11.2113C116.794 12.5675 116.373 14.2736 116.638 15.9431C117.222 19.9403 120.674 21.7913 124.229 21.2758C125.838 21.0511 127.345 20.3607 128.562 19.2895L127.005 17.1394C126.115 17.905 125.022 18.3978 123.856 18.5606C122.249 18.7919 120.745 18.19 120.11 16.5798L128.949 15.2997C128.938 14.9075 128.906 14.5163 128.853 14.1279ZM119.747 14.4298C119.841 12.8581 120.909 11.6637 122.322 11.4615C123.804 11.231 125.226 12.1358 125.639 13.5711L119.747 14.4298ZM115.227 5.78539H111.932V21.1094H115.227V5.78539ZM135.678 13.4488C134.546 13.2033 133.514 12.9832 133.514 12.2985C133.514 11.785 134.228 11.4408 134.989 11.4408C136.181 11.4596 137.351 11.753 138.409 12.2985L139.516 9.8494C138.141 9.01233 136.552 8.58722 134.94 8.62578C132.628 8.62578 130.166 9.94816 130.166 12.4443C130.166 14.7947 132.159 15.5979 134.596 16.2384C135.653 16.5328 136.713 16.703 136.713 17.4385C136.713 18.1731 135.458 18.4665 134.693 18.4665C133.301 18.4928 131.944 18.0339 130.857 17.1676L129.675 19.692C130.365 20.3278 132.061 21.3614 134.693 21.3614C136.983 21.3614 140.057 20.3579 140.057 17.3454C140.057 14.8436 137.777 13.9416 135.678 13.4488ZM79.3658 9.58417H76.0693V21.1113H79.3658V9.58417ZM79.3658 5.78539H76.0693V8.33422H79.3658V5.78539ZM94.4754 21.1113H97.913V14.8483H103.742V11.9421H97.913V8.71889H104.995V5.78539H94.4754V21.1113ZM28.047 6.89897V20.2432C28.047 24.0184 24.9714 27.0779 21.1774 27.0779H7.76547C3.97139 27.0779 0.895874 24.0184 0.895874 20.2432V6.89897C0.895874 3.12276 3.97139 0.0632324 7.76547 0.0632324H21.1774C24.9714 0.0632324 28.047 3.12276 28.047 6.89897ZM21.5319 6.11457C16.8575 6.11457 15.126 9.43463 13.7331 12.102L12.8236 13.8081C11.3489 16.6372 10.2475 18.3565 7.40807 18.3565C6.66694 18.3565 6.06594 18.9546 6.06594 19.692C6.06688 20.4294 6.66694 21.0266 7.40807 21.0275C12.0834 21.0275 13.8159 17.7075 15.2079 15.0402L16.1155 13.3331C17.5921 10.5049 18.6944 8.78567 21.5319 8.78567C22.2731 8.78567 22.8741 8.18749 22.876 7.44918C22.8741 6.71087 22.2731 6.11363 21.5319 6.11457Z" fill="black"/>
</g>
</g>
<defs>
<clipPath id="clip0_52_410">
<rect width="139.161" height="27.2681" fill="white" transform="translate(0.895874 0.0632324)"/>
</clipPath>
<clipPath id="clip1_52_410">
<rect width="139.161" height="27.2527" fill="white" transform="translate(0.895874 0.0632324)"/>
</clipPath>
</defs>
</svg>
