<svg width="146" height="28" viewBox="0 0 146 28" fill="none" xmlns="http://www.w3.org/2000/svg">
<g clip-path="url(#clip0_52_394)">
<g clip-path="url(#clip1_52_394)">
<path d="M50.2824 19.4966V10.4071H50.2429L47.4518 19.4966H44.5628L41.7707 10.4071H41.7322V19.4966H38.8027V7.664H43.6782L45.9969 15.7353H46.0365L48.3373 7.64518H53.2119V19.4768H50.2824V19.4966ZM63.807 14.8535C63.807 15.1481 63.7872 15.6957 63.7872 15.6957H57.4973C57.5557 16.617 58.3029 17.2438 59.5017 17.2438C60.7213 17.2438 61.5457 16.7742 62.1169 16.3225H62.2533L63.1577 18.6544C62.5883 19.1042 61.2907 19.6923 59.5601 19.6923C56.769 19.6923 54.7646 17.91 54.7646 14.8149C54.7646 11.7585 56.769 9.81897 59.3841 9.81897C62.0378 9.81897 63.807 11.8563 63.807 14.8535ZM57.5952 13.6791H61.2314C61.1533 12.9338 60.4842 12.2092 59.4236 12.2092C58.3424 12.2092 57.7128 12.915 57.5952 13.6791ZM72.7111 11.2879L71.7089 13.5022H71.5705C70.765 12.6204 69.6442 12.1697 68.7794 12.1697C68.0529 12.1697 67.7772 12.483 67.7772 12.7974C67.7772 13.2086 67.9344 13.2669 69.9595 13.7572C71.8463 14.207 73.0847 14.9326 73.0847 16.7544C73.0847 18.6544 71.7484 19.6923 69.4287 19.6923C67.1288 19.6923 65.4773 18.8303 64.829 18.1453L65.8904 15.7748H66.0278C66.8531 16.4599 67.8751 17.1261 69.3299 17.1261C70.1957 17.1261 70.3528 16.8918 70.3528 16.5775C70.3528 16.2651 70.175 16.0882 68.1311 15.5791C65.93 15.0304 65.084 14.1487 65.084 12.7183C65.084 10.936 66.52 9.80015 68.6627 9.80015C70.7057 9.81897 72.2791 10.7788 72.7111 11.2879ZM81.8118 11.2879L80.8096 13.5022H80.6732C79.8667 12.6204 78.7459 12.1697 77.8811 12.1697C77.1537 12.1697 76.878 12.483 76.878 12.7974C76.878 13.2086 77.0361 13.2669 79.0612 13.7572C80.948 14.207 82.1854 14.9326 82.1854 16.7544C82.1854 18.6544 80.8492 19.6923 78.5304 19.6923C76.2296 19.6923 74.579 18.8303 73.9297 18.1453L74.9921 15.7748H75.1295C75.9548 16.4599 76.9768 17.1261 78.4316 17.1261C79.2965 17.1261 79.4536 16.8918 79.4536 16.5775C79.4536 16.2651 79.2776 16.0882 77.2328 15.5791C75.0307 15.0304 74.1857 14.1487 74.1857 12.7183C74.1857 10.936 75.6208 9.80015 77.7635 9.80015C79.8272 9.81897 81.3997 10.7788 81.8118 11.2879ZM90.9728 13.4627V19.4966H88.752L88.5158 18.2431H88.4565C88.0048 19.0468 87.0609 19.6923 85.7237 19.6923C83.8962 19.6923 82.9524 18.517 82.9524 16.9699C82.9524 15.4219 83.66 14.4423 85.8818 14.0113C88.1027 13.5803 88.2598 13.4241 88.2598 12.9536C88.2598 12.5038 87.8279 12.2487 86.9433 12.2487C85.9806 12.2487 84.8994 12.9338 84.3094 13.8156H84.171L83.0512 11.5241C84.0929 10.505 85.4292 9.81897 87.1193 9.81897C89.262 9.81897 90.9728 11.2098 90.9728 13.4627ZM88.2598 15.3043C88.1027 15.5593 87.8081 15.7353 86.805 15.9705C85.8423 16.2058 85.7049 16.4796 85.7049 16.8523C85.7049 17.224 86.0192 17.4009 86.5104 17.4009C87.2971 17.4009 88.2994 16.8918 88.2994 16.1277V15.3043H88.2598ZM98.8945 11.2691H98.9538L99.1109 10.0147H101.313V18.2827C101.313 21.2018 99.6614 22.8081 96.6539 22.8081C94.9431 22.8081 93.6266 22.2388 92.8201 21.6516L93.6651 19.2416H93.8035C94.6099 19.889 95.4748 20.2805 96.5551 20.2805C97.9911 20.2805 98.5011 19.7121 98.5011 18.4389V17.5769H98.4418C98.0297 18.1838 97.2241 18.6939 96.0055 18.6939C93.7442 18.6939 92.1717 16.9304 92.1717 14.4225C92.1717 11.6803 94.0387 9.80015 96.2408 9.80015C97.577 9.81897 98.5011 10.6029 98.8945 11.2691ZM95.0616 14.3444C95.0616 15.501 95.7891 16.2256 96.8891 16.2256C97.9506 16.2256 98.678 15.5593 98.678 14.3247C98.678 13.1493 98.0494 12.3071 96.8891 12.3071C95.6912 12.3071 95.0616 13.1879 95.0616 14.3444ZM111.73 14.8535C111.73 15.1481 111.711 15.6957 111.711 15.6957H105.421C105.48 16.617 106.227 17.2438 107.426 17.2438C108.645 17.2438 109.471 16.7742 110.04 16.3225H110.178L111.062 18.6741C110.493 19.1249 109.195 19.7121 107.465 19.7121C104.673 19.7121 102.668 17.9298 102.668 14.8338C102.668 11.7782 104.673 9.83874 107.288 9.83874C109.961 9.81897 111.73 11.8563 111.73 14.8535ZM105.518 13.6791H109.156C109.077 12.9338 108.408 12.2092 107.347 12.2092C106.285 12.2092 105.637 12.915 105.518 13.6791ZM119.613 7.664C121.953 7.664 123.21 8.79983 123.21 10.7007C123.21 12.0521 122.581 12.8943 121.343 13.4241V13.4627C122.463 13.8946 123.21 14.8149 123.21 16.3432C123.21 17.8714 122.345 19.4966 119.18 19.4966H113.244V7.664H119.613ZM116.252 12.483H119.082C119.79 12.483 120.184 12.0718 120.184 11.4648C120.184 10.8767 119.869 10.4071 118.984 10.4071H116.252V12.483ZM116.252 16.7544H119.082C119.79 16.7544 120.184 16.3432 120.184 15.7165C120.184 15.0888 119.869 14.6192 118.984 14.6192H116.252V16.7544ZM127.849 7.13608C127.849 8.15428 127.221 8.89864 126.08 8.89864C124.94 8.89864 124.311 8.15428 124.311 7.13608C124.311 6.09717 124.94 5.41116 126.08 5.41116C127.221 5.41116 127.849 6.09717 127.849 7.13608ZM124.665 19.4966V10.0147H127.456V19.4768H124.665V19.4966ZM135.712 10.6029L135.299 13.1493H135.162C134.832 12.7832 134.358 12.5762 133.864 12.5819C132.745 12.5819 132.095 13.6001 132.095 15.3043V19.4966H129.304V10.0147H131.604L131.761 11.2691H131.82C132.331 10.25 133.118 9.81897 133.982 9.81897C134.651 9.81897 135.359 10.074 135.712 10.6029ZM143.241 19.4966L143.005 18.2431H142.945C142.396 19.1042 141.57 19.6923 140.056 19.6923C137.501 19.6923 135.889 17.6559 135.889 14.893C135.889 12.0521 137.58 9.81897 140.135 9.81897C141.255 9.81897 142.179 10.25 142.71 10.9943H142.75V6.9394H145.462V19.4966H143.241ZM138.681 14.7754C138.681 16.2058 139.506 17.1073 140.744 17.1073C141.983 17.1073 142.828 16.3037 142.828 14.7557C142.828 13.3253 142.002 12.3071 140.784 12.3071C139.564 12.3071 138.681 13.346 138.681 14.7754ZM29.014 4.90206C27.7578 4.90582 26.5796 5.51091 25.8493 6.52817L21.0726 13.1879C20.8327 13.5323 20.396 13.681 19.9951 13.5558C19.5943 13.4297 19.3214 13.059 19.3232 12.6402C19.3232 12.4445 19.3825 12.2487 19.4804 12.1113L23.5099 6.09717C23.9381 5.45915 24.1639 4.70915 24.1583 3.9422C24.1602 2.91929 23.7536 1.93685 23.0272 1.21225C22.2997 0.488596 21.3135 0.0820684 20.2859 0.0830094H0V3.9422H17.3772C17.3744 5.01216 16.5048 5.87885 15.4302 5.88168H0C0 7.25277 0.294544 8.56551 0.805527 9.74087H13.4851C13.4832 10.8108 12.6127 11.6775 11.539 11.6803H1.94606C3.7745 14.1176 6.65501 15.5489 9.71056 15.5395H14.4873C15.0048 15.5602 15.4132 15.9837 15.4132 16.4994C15.4132 17.0151 15.0048 17.4385 14.4873 17.4593H9.6908L3.20423 27.1171H14.939C20.3057 27.1171 24.866 23.6296 26.4591 18.8106L28.6404 12.2092C29.3472 10.0909 30.626 8.20604 32.3359 6.76249C31.6358 5.60313 30.3738 4.89547 29.014 4.90206ZM29.014 7.54637C28.615 7.53978 28.2923 7.21889 28.2866 6.82177C28.2923 6.42466 28.615 6.10376 29.014 6.09717C29.4074 6.09717 29.7405 6.42936 29.7405 6.82177C29.7424 7.01374 29.6662 7.19913 29.5288 7.33464C29.3923 7.47109 29.207 7.54731 29.014 7.54637Z" fill="black"/>
</g>
</g>
<defs>
<clipPath id="clip0_52_394">
<rect width="145.743" height="27.2681" fill="white" transform="translate(0 0.0632324)"/>
</clipPath>
<clipPath id="clip1_52_394">
<rect width="145.743" height="27.2675" fill="white" transform="translate(0 0.0632324)"/>
</clipPath>
</defs>
</svg>
