<svg width="131" height="25" viewBox="0 0 131 25" fill="none" xmlns="http://www.w3.org/2000/svg">
<g clip-path="url(#clip0_52_418)">
<g clip-path="url(#clip1_52_418)">
<path d="M47.4841 24.9647L47.0803 23.9193H45.7869L45.4092 24.9647H44.735L46.1095 21.339H46.7157L48.1844 24.9647H47.4841ZM46.8779 23.3756L46.5683 22.5475C46.5142 22.3983 46.4602 22.2631 46.4201 22.141C46.3921 22.2603 46.3557 22.3788 46.3119 22.4935L45.9752 23.3896H46.8779V23.3756ZM53.1156 24.9647V22.5214L52.2801 24.9647H51.742L50.9065 22.4804V24.9647H50.2863V21.339H51.1219L51.9444 23.8382C51.9714 23.9324 51.9975 24.0135 52.0246 24.0825C52.0516 24.0004 52.0777 23.9053 52.1188 23.7962L52.9543 21.339H53.7087V24.9647H53.1156ZM57.6291 25.0188C57.3064 25.0188 57.0369 24.9647 56.8206 24.8835C56.6005 24.7959 56.4159 24.6383 56.2956 24.435C56.1725 24.2336 56.1035 24.0051 56.0932 23.7701V23.688L56.6863 23.6339L56.6993 23.7151C56.7133 23.8783 56.7534 24.0004 56.8206 24.0955C56.8886 24.1907 56.9828 24.2718 57.1311 24.3268C57.2794 24.394 57.4407 24.4219 57.616 24.4219C57.7783 24.4219 57.9265 24.394 58.0468 24.3529C58.1485 24.3212 58.2371 24.2597 58.3033 24.1776C58.3555 24.1067 58.3844 24.0209 58.3844 23.9324C58.3844 23.8484 58.3555 23.7673 58.3033 23.702C58.2492 23.6339 58.155 23.5799 58.0338 23.5258C57.9396 23.4847 57.7512 23.4307 57.4407 23.3626C57.118 23.2815 56.8886 23.2134 56.7665 23.1453C56.6061 23.0604 56.4681 22.9392 56.3627 22.7919C56.2713 22.6501 56.2247 22.4851 56.2284 22.3172C56.2284 22.127 56.2825 21.9507 56.3897 21.7875C56.4979 21.6253 56.6592 21.4891 56.8616 21.408C57.064 21.3259 57.2794 21.2858 57.5218 21.2858C57.7783 21.2858 58.0198 21.3259 58.2222 21.4211C58.4385 21.5162 58.5998 21.6383 58.7071 21.8146C58.8153 21.9908 58.8824 22.182 58.8964 22.3983V22.4804L58.2893 22.5214L58.2762 22.4394C58.2492 22.2491 58.1821 22.0999 58.0739 22.0048C57.9536 21.9097 57.7783 21.8556 57.5349 21.8556C57.2794 21.8556 57.1041 21.8957 56.9959 21.9908C56.8886 22.0729 56.8346 22.168 56.8346 22.2902C56.8346 22.3853 56.8747 22.4664 56.9427 22.5345C56.9959 22.5886 57.1451 22.6567 57.589 22.7648C57.9536 22.8469 58.2222 22.928 58.3574 22.9961C58.5728 23.0912 58.7341 23.2264 58.8283 23.3756C58.9365 23.5258 58.9906 23.7151 58.9906 23.9193C58.9906 24.1226 58.9365 24.3128 58.8153 24.4891C58.7071 24.6663 58.5457 24.8015 58.3303 24.8966C58.1065 24.9815 57.8687 25.0225 57.6291 25.0188ZM62.2507 24.9647V21.9237H61.1195V21.339H64.016V21.9237H62.8839V24.9647H62.2507ZM66.2662 24.9647V21.339H68.9202V21.9237H66.8994V22.8059H68.7849V23.3896H66.8994V24.3809H69.0013V24.9647H66.2662ZM73.8924 24.9647L73.4066 24.2047C73.3105 24.0433 73.2023 23.8885 73.0839 23.7431C73.0028 23.6479 72.9356 23.5659 72.8815 23.5258C72.8293 23.4875 72.7696 23.4596 72.7062 23.4437C72.6792 23.4437 72.612 23.4307 72.4778 23.4307H72.046V24.9647H71.4128V21.339H73.0168C73.3264 21.339 73.5688 21.367 73.7441 21.4341C73.9194 21.5031 74.0668 21.6253 74.161 21.8015C74.2691 21.9647 74.3102 22.154 74.3102 22.3713C74.3102 22.6436 74.229 22.8609 74.0537 23.0502C73.9064 23.1985 73.7199 23.3029 73.5147 23.3486C73.5418 23.3756 73.5688 23.3896 73.5959 23.4167C73.7301 23.5398 73.8654 23.702 73.9866 23.8913L74.6729 24.9647H73.8924ZM72.9216 22.8609C73.1109 22.8609 73.2723 22.8469 73.3795 22.8059C73.4746 22.7648 73.5548 22.7107 73.5959 22.6296C73.649 22.5541 73.677 22.4636 73.677 22.3713C73.677 22.2426 73.6229 22.1195 73.5278 22.0319C73.4336 21.9367 73.2592 21.8957 73.0298 21.8957H72.032V22.8609H72.9216ZM76.8159 24.9647V21.339H78.0823C78.3518 21.339 78.5672 21.353 78.7155 21.394C78.9178 21.4481 79.1062 21.5302 79.2545 21.6654C79.4428 21.8286 79.5911 22.0319 79.6862 22.2902C79.7804 22.5345 79.8205 22.8198 79.8205 23.1453C79.8205 23.4167 79.7935 23.661 79.7263 23.8652C79.6704 24.0517 79.5883 24.2298 79.4839 24.394C79.3925 24.5264 79.2787 24.6411 79.1472 24.7334C79.026 24.8145 78.8768 24.8835 78.7155 24.9236C78.5541 24.9647 78.3518 24.9917 78.1494 24.9917H76.8159V24.9647ZM78.0823 24.3809C78.2977 24.3809 78.4599 24.3669 78.5812 24.3268C78.681 24.2914 78.7733 24.2364 78.8507 24.1636C78.9449 24.0685 79.026 23.9324 79.0801 23.7701C79.1332 23.5929 79.1603 23.3756 79.1603 23.1313C79.1603 22.7919 79.1062 22.5214 78.9989 22.3443C78.8908 22.168 78.7695 22.0458 78.6082 21.9908C78.5 21.9507 78.3117 21.9237 78.0552 21.9237H77.4491V24.3809H78.0823ZM84.5634 24.9647L84.1586 23.9193H82.8522L82.4754 24.9647H81.8012L83.1758 21.339H83.7819L85.2506 24.9647H84.5634ZM83.9563 23.3756L83.6467 22.5475C83.5935 22.3983 83.5394 22.2631 83.4984 22.141C83.4704 22.2613 83.435 22.3788 83.3902 22.4935L83.0545 23.3896H83.9563V23.3756ZM90.1949 24.9647V22.5214L89.3463 24.9647H88.8073L87.9718 22.4804V24.9647H87.3656V21.339H88.2012L89.0367 23.8382C89.0638 23.9324 89.0908 24.0135 89.1178 24.0825C89.1449 24.0004 89.185 23.9053 89.212 23.7962L90.0466 21.339H90.8011V24.9647H90.1949ZM15.8209 16.1271L14.4063 5.72749L9.35383 16.1271H8.81483L3.69523 5.66035L2.27965 16.1271H0.596436L2.73846 0.867145H3.18328L9.08433 12.991L14.9453 0.867145H15.377L17.5452 16.1271H15.8209ZM58.5457 16.1271L57.1311 5.72749L52.0777 16.1271H51.5257L46.4061 5.66035L45.0045 16.1271H43.3073L45.4623 0.867145H45.9081L51.8092 12.991L57.6561 0.867145H58.1009L60.2569 16.1271H58.5457ZM124.917 16.5337C124.022 16.543 123.148 16.2772 122.41 15.7736C121.67 15.285 120.968 14.4429 120.349 13.2894L120.282 13.1803L121.764 12.2711L121.831 12.3932C122.68 13.9953 123.677 14.7964 124.768 14.7964C125.239 14.7964 125.684 14.6872 126.102 14.4569C126.506 14.2396 126.829 13.9272 127.046 13.5608C127.256 13.2027 127.368 12.7951 127.368 12.3792C127.368 11.9046 127.206 11.443 126.897 10.9814C126.453 10.3295 125.604 9.52849 124.405 8.60528C123.151 7.64198 122.397 6.9631 122.087 6.52854C121.548 5.80862 121.278 5.00758 121.278 4.15245C121.278 3.47357 121.44 2.8497 121.764 2.30697C122.079 1.75025 122.546 1.29424 123.11 0.989306C123.69 0.663853 124.324 0.514648 124.998 0.514648C125.711 0.514648 126.385 0.690897 127.019 1.05738C127.652 1.42387 128.285 2.06265 128.985 3.02595L129.067 3.13413L127.652 4.22053L127.571 4.11142C127.032 3.37845 126.56 2.90379 126.183 2.67252C125.819 2.44685 125.399 2.32842 124.971 2.33308C124.405 2.33308 123.959 2.49628 123.609 2.84971C123.259 3.18915 123.084 3.60972 123.084 4.11142C123.084 4.41076 123.151 4.72316 123.273 5.00758C123.394 5.29293 123.636 5.61932 123.973 5.95876C124.108 6.09398 124.539 6.46046 125.86 7.43869C127.139 8.40199 128.042 9.27018 128.514 10.0311C128.999 10.7911 129.241 11.5791 129.241 12.3531C129.241 13.4656 128.824 14.4569 127.989 15.285C127.139 16.1131 126.115 16.5337 124.917 16.5337ZM76.5063 16.1271L74.188 11.1987H68.0035L65.7001 16.1271H63.7605L70.8607 0.867145H71.3988L78.3928 16.1271H76.5063ZM73.4205 9.48746L71.1172 4.50588L68.7989 9.4744H73.4205V9.48746ZM101.863 16.1271L95.4227 0.867145H97.3222L102.119 12.244L106.996 0.867145H108.897L102.362 16.1271H101.863ZM113.854 0.867145H115.619V16.1271H113.854V0.867145ZM29.807 16.1271L23.8789 7.56085V16.1271H22.1398V0.867145H25.2124C26.8826 0.867145 27.9886 0.93522 28.5677 1.07137C29.4387 1.25788 30.2183 1.7372 30.7769 2.4282C31.3429 3.12107 31.6255 3.9762 31.6255 4.98147C31.6255 5.82261 31.4231 6.56864 31.0464 7.20742C30.6556 7.84527 30.0896 8.33392 29.3622 8.6603C28.702 8.95871 28.0958 9.12191 26.9637 9.16201L31.9761 16.1271H29.807ZM26.2765 7.5739C27.2332 7.5739 27.9476 7.47879 28.4054 7.28855C28.8409 7.11976 29.2065 6.8083 29.4424 6.40638C29.6858 5.99886 29.8201 5.53726 29.8201 5.04861C29.8201 4.55997 29.6989 4.11142 29.4424 3.71789C29.2111 3.33369 28.8614 3.03435 28.4455 2.86369C28.0287 2.68651 27.3284 2.60538 26.3305 2.60538H23.8649V7.54686L26.2765 7.5739ZM90.2359 16.1401L84.3069 7.5739V16.1401H82.5696V0.867145H85.6414C87.3115 0.867145 88.4166 0.93522 88.9957 1.07137C89.8667 1.25788 90.6472 1.7372 91.2058 2.4282C91.7718 3.12107 92.0544 3.9762 92.0544 4.98147C92.0544 5.82261 91.853 6.56864 91.4753 7.20742C91.0845 7.84527 90.5185 8.33392 89.7911 8.6603C89.1309 8.95871 88.5247 9.12191 87.3927 9.16201L92.405 16.1271H90.2359V16.1401ZM86.7054 7.5739C87.6622 7.5739 88.3765 7.47879 88.8343 7.28855C89.2698 7.11883 89.6354 6.8083 89.8723 6.40638C90.1138 5.99886 90.249 5.53726 90.249 5.04861C90.249 4.55997 90.1278 4.11142 89.8723 3.71789C89.6401 3.33369 89.2904 3.03435 88.8744 2.86369C88.4576 2.68651 87.7563 2.60538 86.7595 2.60538H84.2939V7.54686L86.7054 7.5739Z" fill="black"/>
</g>
</g>
<defs>
<clipPath id="clip0_52_418">
<rect width="129.758" height="24.4472" fill="white" transform="translate(0.515381 0.473633)"/>
</clipPath>
<clipPath id="clip1_52_418">
<rect width="128.951" height="24.4472" fill="white" transform="translate(0.515381 0.473633)"/>
</clipPath>
</defs>
</svg>
