<svg width="74" height="38" viewBox="0 0 74 38" fill="none" xmlns="http://www.w3.org/2000/svg">
<g clip-path="url(#clip0_52_398)">
<path d="M54.7704 30.2716V27.5083H56.3374C58.3878 27.5083 58.5072 25.5867 58.5072 25.5867L54.333 13.9003H50.726V26.1398H47.4594V11.3965C47.4594 9.57934 48.0369 8.29924 49.191 7.55808C50.3451 6.81598 51.9271 6.44446 53.938 6.44446C54.0302 6.44446 54.1703 6.44916 54.3565 6.45857C54.5418 6.46797 54.682 6.47267 54.7751 6.47267V8.86546C54.5889 8.84382 54.4026 8.83442 54.2164 8.83724C53.7884 8.83724 53.4339 8.84665 53.1555 8.86546C52.8422 8.88991 52.5328 8.95105 52.2337 9.04604C51.8998 9.14762 51.6346 9.28212 51.438 9.4486C51.2424 9.61602 51.0759 9.86621 50.9357 10.2001C50.7965 10.534 50.726 10.9328 50.726 11.3965H54.7751V11.4059L56.6515 11.3965L60.2999 21.5028L64.666 11.3965H68.1527C68.1527 11.3965 61.9064 25.4832 61.1596 27.0286C60.1146 29.1928 59.2305 30.2716 56.9403 30.2716H54.7704ZM5.72119 26.1398V16.9599C5.72119 15.0129 6.21404 13.5983 7.20069 12.717C8.18734 11.8367 9.68565 11.3965 11.6956 11.3965H15.7739V13.9003H12.5337C11.2489 13.9003 10.3375 14.2154 9.79757 14.8455C9.25769 15.4766 8.98775 16.468 8.98775 17.8224V26.1398H5.72119ZM17.8657 26.1398C15.4089 26.1398 14.1806 24.6095 14.1806 21.5498C14.1806 20.1221 14.4872 19 15.1023 18.1836C15.7156 17.3681 16.6373 16.9599 17.8657 16.9599H24.5672V16.0146C24.5672 14.6047 23.8777 13.9003 22.5008 13.9003H18.1836V11.3965H23.6736C25.0327 11.3965 26.0655 11.7953 26.7728 12.5929C27.4801 13.3905 27.8337 14.4373 27.8337 15.7362V23.636C27.8337 25.3055 26.9957 26.1398 25.3215 26.1398H17.8657ZM30.3366 26.1398V16.9599C30.3366 15.0129 30.8294 13.5983 31.817 12.717C32.8036 11.8367 34.302 11.3965 36.3119 11.3965H38.9333V13.9003H37.149C35.8642 13.9003 34.9528 14.2154 34.4129 14.8455C33.8731 15.4766 33.6031 16.468 33.6031 17.8224V26.1398H30.3366ZM41.2583 26.1398V11.3965H44.5249V26.1398H41.2583ZM19.1223 23.636H23.7291C24.2878 23.636 24.5672 23.3585 24.5672 22.8017V19.4637H19.1223C18.0801 19.4637 17.5591 20.1587 17.5591 21.5498C17.5591 22.9409 18.0801 23.636 19.1223 23.636ZM41.2583 9.4486V6.44446H44.5249V9.4486H41.2583Z" fill="black"/>
</g>
<defs>
<clipPath id="clip0_52_398">
<rect width="72.4014" height="36.6708" fill="white" transform="translate(0.756958 0.361816)"/>
</clipPath>
</defs>
</svg>
