<svg width="61" height="59" viewBox="0 0 61 59" fill="none" xmlns="http://www.w3.org/2000/svg">
<rect y="0.5" width="61" height="58" rx="29" fill="#F8F8F8"/>
<path d="M38.0005 32.6301C36.812 32.6301 35.743 33.1301 34.984 33.9281L26.1155 29.5861C26.146 29.3821 26.167 29.1756 26.167 28.9631C26.167 28.7561 26.147 28.5541 26.118 28.3556L34.9735 24.0611C35.733 24.8656 36.807 25.3706 38.0005 25.3706C40.3015 25.3706 42.167 23.5051 42.167 21.2041C42.167 18.9026 40.3015 17.0376 38.0005 17.0376C35.6995 17.0376 33.834 18.9026 33.834 21.2041C33.834 21.4111 33.854 21.6126 33.883 21.8116L25.0275 26.1061C24.268 25.3016 23.1945 24.7966 22.0005 24.7966C19.699 24.7966 17.834 26.6621 17.834 28.9631C17.834 31.2646 19.699 33.1296 22.0005 33.1296C23.189 33.1296 24.258 32.6296 25.017 31.8316L33.8855 36.1736C33.855 36.3771 33.834 36.5841 33.834 36.7966C33.834 39.0981 35.6995 40.9631 38.0005 40.9631C40.3015 40.9631 42.167 39.0981 42.167 36.7966C42.167 34.4951 40.3015 32.6301 38.0005 32.6301Z" fill="black"/>
</svg>
