<svg width="275" height="164" viewBox="0 0 275 164" fill="none" xmlns="http://www.w3.org/2000/svg">
<path d="M-10.6462 153.863C-11.7801 158.133 -9.23755 162.514 -4.96726 163.648C-0.696973 164.782 3.68401 162.239 4.81794 157.969L-10.6462 153.863ZM55.4597 80.0516L56.2143 72.0873L55.4597 80.0516ZM106.565 132.948L106.242 140.941L106.565 132.948ZM130.115 31.2469L128.002 23.5309L130.115 31.2469ZM219.564 52.294L214.084 46.4654L219.564 52.294ZM261.159 7.50746C260.359 3.16228 256.187 0.288649 251.842 1.08902L181.033 14.1319C176.688 14.9323 173.815 19.1036 174.615 23.4487C175.415 27.7939 179.587 30.6675 183.932 29.8672L246.873 18.2735L258.467 81.2147C259.267 85.5598 263.438 88.4335 267.784 87.6331C272.129 86.8327 275.002 82.6614 274.202 78.3162L261.159 7.50746ZM-2.91411 155.916C4.81794 157.969 4.81757 157.971 4.81728 157.972C4.81729 157.972 4.81707 157.972 4.81709 157.972C4.81713 157.972 4.81748 157.971 4.81815 157.968C4.81949 157.963 4.82211 157.954 4.82599 157.939C4.83375 157.91 4.84659 157.863 4.86448 157.798C4.90026 157.667 4.95624 157.464 5.03225 157.194C5.18431 156.654 5.41637 155.846 5.72717 154.81C6.34916 152.737 7.28428 149.757 8.52216 146.184C11.0071 139.01 14.6693 129.568 19.4104 120.303C24.1942 110.956 29.8471 102.247 36.1533 96.1799C42.434 90.1374 48.5601 87.4337 54.705 88.0159L56.2143 72.0873C43.714 70.9028 33.2207 76.7988 25.0603 84.6496C16.9254 92.476 10.3156 102.954 5.16721 113.014C-0.0238092 123.158 -3.96302 133.344 -6.59654 140.947C-7.91787 144.762 -8.92122 147.957 -9.59788 150.212C-9.93641 151.341 -10.1937 152.235 -10.3687 152.857C-10.4562 153.167 -10.5232 153.41 -10.5695 153.579C-10.5926 153.664 -10.6106 153.73 -10.6234 153.778C-10.6297 153.802 -10.6348 153.821 -10.6386 153.835C-10.6405 153.842 -10.6421 153.848 -10.6434 153.852C-10.644 153.855 -10.6447 153.857 -10.645 153.859C-10.6456 153.861 -10.6462 153.863 -2.91411 155.916ZM54.705 88.0159C59.1711 88.4391 62.296 90.5121 65.175 94.2116C68.331 98.2671 70.7391 103.681 73.6489 110.301C76.3475 116.44 79.5598 123.824 84.2673 129.618C89.3039 135.818 96.3058 140.539 106.242 140.941L106.888 124.954C102.445 124.775 99.4506 122.933 96.6857 119.529C93.5918 115.721 91.1975 110.462 88.2962 103.862C85.606 97.7424 82.4209 90.3205 77.802 84.3852C72.9061 78.0939 66.0745 73.0216 56.2143 72.0873L54.705 88.0159ZM106.242 140.941C112.843 141.208 118.841 139.583 123.3 135.202C127.566 131.011 129.254 125.419 129.882 120.234C131.097 110.187 128.752 97.0702 126.759 85.4191C124.63 72.9645 122.753 61.5426 123.513 52.6037C123.883 48.2445 124.842 45.1866 126.172 43.1295C127.364 41.2864 129.117 39.8146 132.228 38.9629L128.002 23.5309C121.251 25.3793 116.15 29.1623 112.736 34.4416C109.461 39.5068 108.064 45.4387 107.57 51.2494C106.602 62.6503 108.966 76.2887 110.988 88.1159C113.148 100.747 114.866 111.134 113.997 118.313C113.583 121.741 112.693 123.193 112.086 123.789C111.673 124.195 110.505 125.101 106.888 124.954L106.242 140.941ZM132.228 38.9629C136.143 37.8909 141.716 38.6708 149.416 41.6035C156.983 44.4853 164.988 48.7719 173.612 53.1346C181.864 57.3092 190.837 61.6345 199.206 63.5503C207.709 65.497 217.38 65.3276 225.044 58.1226L214.084 46.4654C211.987 48.4374 208.831 49.3399 202.776 47.9538C196.587 46.5369 189.27 43.1247 180.835 38.8575C172.771 34.7786 163.692 29.9192 155.111 26.6512C146.664 23.4339 137.027 21.0601 128.002 23.5309L132.228 38.9629ZM225.044 58.1226C231.157 52.3756 240.011 40.9314 246.981 31.5079C250.552 26.679 253.772 22.1827 256.098 18.8956C257.261 17.2509 258.203 15.906 258.856 14.97C259.182 14.5019 259.436 14.1359 259.61 13.8856C259.696 13.7605 259.763 13.6642 259.808 13.5986C259.831 13.5658 259.848 13.5406 259.86 13.5233C259.866 13.5146 259.871 13.508 259.874 13.5033C259.876 13.5009 259.877 13.4991 259.878 13.4977C259.878 13.497 259.879 13.4964 259.879 13.4961C259.879 13.4956 259.879 13.4952 253.291 8.95667C246.703 4.41815 246.704 4.41802 246.704 4.41801C246.703 4.41818 246.703 4.4183 246.703 4.41863C246.703 4.41929 246.702 4.42045 246.701 4.4221C246.698 4.42541 246.695 4.43071 246.69 4.43796C246.68 4.45246 246.664 4.4748 246.644 4.50474C246.602 4.56463 246.54 4.65498 246.457 4.77409C246.292 5.01231 246.047 5.3655 245.73 5.82011C245.096 6.72944 244.176 8.04376 243.036 9.65469C240.755 12.8789 237.604 17.2797 234.117 21.9936C226.971 31.6557 218.961 41.8802 214.084 46.4654L225.044 58.1226Z" fill="#2E95F4"/>
</svg>
