<svg width="167" height="12" viewBox="0 0 167 12" fill="none" xmlns="http://www.w3.org/2000/svg">
<g clip-path="url(#clip0_52_406)">
<g clip-path="url(#clip1_52_406)">
<path d="M4.68249 11.1898C3.10239 11.1898 1.69765 10.641 0.470093 9.54521L1.19154 8.69383C1.74217 9.19357 2.29189 9.55975 2.84161 9.79508C3.40132 10.0295 4.02919 10.1476 4.7261 10.1476C5.41393 10.1476 5.9682 9.9868 6.3898 9.66242C6.81322 9.32987 7.02311 8.89918 7.02311 8.37126C7.02311 7.87243 6.83684 7.47627 6.46431 7.18187C6.09086 6.88838 5.38395 6.63488 4.34357 6.41953C3.11511 6.15603 2.23283 5.79803 1.6922 5.34826C1.15247 4.89758 0.883518 4.257 0.883518 3.42561C0.883518 2.61329 1.20154 1.94363 1.83939 1.4139C2.47816 0.885993 3.28775 0.621582 4.27179 0.621582C5.63564 0.621582 6.8432 1.04228 7.89358 1.88457L7.21665 2.77866C6.30348 2.03631 5.31126 1.66378 4.2409 1.66378C3.58305 1.66378 3.05332 1.82551 2.64989 2.14808C2.24828 2.46155 2.04565 2.86317 2.04565 3.35201C2.04565 3.85993 2.23828 4.26154 2.62081 4.55594C3.01425 4.84942 3.75569 5.11293 4.84513 5.34826C6.01454 5.60268 6.86229 5.96068 7.39292 6.41953C7.93265 6.8693 8.20251 7.4908 8.20251 8.28313C8.20251 9.15359 7.87359 9.85778 7.21665 10.3975C6.5579 10.9254 5.71378 11.1898 4.68249 11.1898ZM20.5826 11.2044C19.276 11.2044 18.2356 10.8173 17.4596 10.045C16.6836 9.26172 16.2957 8.16046 16.2957 6.7421V0.76878H17.4596V6.6685C17.4596 7.7743 17.734 8.63113 18.2846 9.23719C18.8444 9.83415 19.6194 10.1331 20.6107 10.1331C21.583 10.1331 22.3444 9.84324 22.8941 9.26626C23.4438 8.69019 23.7182 7.84789 23.7182 6.7421V0.76878H24.8822V6.65487C24.8822 8.12139 24.4942 9.24718 23.7182 10.0295C22.9423 10.8127 21.8973 11.2044 20.5826 11.2044ZM33.5241 11.0426V0.767871H37.3822C38.5597 0.767871 39.4965 1.06136 40.1953 1.64833C40.8922 2.2353 41.2402 3.03762 41.2402 4.05528C41.2402 5.12201 40.8531 5.94977 40.0772 6.53493C39.3112 7.12281 38.3489 7.4163 37.1904 7.4163H34.6863V11.0417H33.5241V11.0426ZM34.6863 6.36138H37.2341C38.0882 6.36138 38.7705 6.15603 39.2812 5.74442C39.8018 5.32282 40.0626 4.76583 40.0626 4.07073C40.0626 3.35746 39.8118 2.80774 39.3112 2.42702C38.8196 2.03631 38.1472 1.84005 37.2931 1.84005H34.6863V6.36138ZM49.2507 11.0426V0.767871H56.7032V1.8246H50.4146V5.33191H56.0399V6.38864H50.4146V9.98499H56.7768V11.0417H49.2507V11.0426ZM65.0081 11.0426V0.767871H69.4404C70.707 0.767871 71.6838 1.11042 72.3707 1.79553C72.9013 2.32344 73.1666 3.00855 73.1666 3.84993C73.1666 4.67133 72.9104 5.33645 72.4016 5.84619C71.89 6.35502 71.2122 6.68758 70.3672 6.84386L73.5355 11.0417H72.1054L69.116 7.05012H66.1711V11.0417H65.0072L65.0081 11.0426ZM66.1711 6.00883H69.3377C70.1227 6.00883 70.7606 5.81711 71.2522 5.43549C71.7428 5.05387 71.9881 4.5305 71.9881 3.86538C71.9881 3.23025 71.7528 2.73596 71.2812 2.38341C70.8196 2.02178 70.1763 1.84005 69.3513 1.84005H66.1711V6.00883ZM81.5405 11.0426V0.767871H82.7045V5.33281H88.6533V0.767871H89.8172V11.0435H88.6533V6.42044H82.7045V11.0435H81.5405V11.0426ZM102.744 11.2044C101.438 11.2044 100.397 10.8173 99.6213 10.045C98.8463 9.26172 98.4583 8.16046 98.4583 6.7421V0.76878H99.6213V6.6685C99.6213 7.7743 99.8966 8.63113 100.446 9.23719C101.007 9.83415 101.781 10.1331 102.773 10.1331C103.745 10.1331 104.506 9.84324 105.056 9.26626C105.606 8.69019 105.88 7.84789 105.88 6.7421V0.76878H107.044V6.65487C107.044 8.12139 106.657 9.24718 105.88 10.0295C105.105 10.8127 104.059 11.2044 102.744 11.2044ZM115.686 11.0426V0.767871H116.863L120.619 6.3741L124.374 0.767871H125.553V11.0435H124.389V2.7196L120.634 8.22407H120.575L116.82 2.73505V11.0417H115.686V11.0426ZM133.479 11.0426L138.175 0.696089H139.266L143.963 11.0417H142.712L141.504 8.32674H135.893L134.671 11.0426H133.479ZM136.35 7.28545H141.047L138.706 2.0454L136.35 7.28545ZM151.886 11.0426V0.767871H152.976L159.471 9.00094V0.767871H160.606V11.0435H159.678L153.021 2.61874V11.0435H151.886V11.0426Z" fill="black"/>
</g>
</g>
<defs>
<clipPath id="clip0_52_406">
<rect width="166.429" height="11.2833" fill="white" transform="translate(0.452881 0.055542)"/>
</clipPath>
<clipPath id="clip1_52_406">
<rect width="160.827" height="11.2833" fill="white" transform="translate(0.452881 0.055542)"/>
</clipPath>
</defs>
</svg>
