<svg width="32" height="33" viewBox="0 0 32 33" fill="none" xmlns="http://www.w3.org/2000/svg">
<path d="M31.993 6.29477C30.816 6.81777 29.552 7.17077 28.223 7.32777C29.578 6.51577 30.619 5.22977 31.11 3.69777C29.841 4.44877 28.437 4.99677 26.942 5.28977C25.744 4.01477 24.038 3.21777 22.149 3.21777C18.524 3.21777 15.587 6.15577 15.587 9.78077C15.587 10.2948 15.644 10.7968 15.756 11.2768C10.301 11.0028 5.46498 8.38977 2.22698 4.41877C1.66298 5.38877 1.33898 6.51577 1.33898 7.71877C1.33898 9.99677 2.49798 12.0048 4.25798 13.1828C3.18298 13.1478 2.17098 12.8538 1.28598 12.3618C1.28498 12.3888 1.28498 12.4178 1.28498 12.4438C1.28498 15.6248 3.54698 18.2778 6.54998 18.8808C5.99998 19.0298 5.41998 19.1108 4.82098 19.1108C4.39698 19.1108 3.98698 19.0698 3.58698 18.9938C4.42098 21.5998 6.84598 23.4978 9.71698 23.5518C7.47198 25.3118 4.64198 26.3628 1.56698 26.3628C1.03698 26.3628 0.513977 26.3318 0.000976562 26.2708C2.90498 28.1308 6.35498 29.2178 10.062 29.2178C22.134 29.2178 28.737 19.2168 28.737 10.5428C28.737 10.2588 28.729 9.97477 28.717 9.69277C30 8.76777 31.112 7.61277 31.993 6.29477Z" fill="black"/>
</svg>
