<svg width="42" height="42" viewBox="0 0 42 42" fill="none" xmlns="http://www.w3.org/2000/svg">
<g clip-path="url(#clip0_942_1168)">
<mask id="mask0_942_1168" style="mask-type:luminance" maskUnits="userSpaceOnUse" x="0" y="0" width="42" height="42">
<path d="M42 0H0V42H42V0Z" fill="white"/>
</mask>
<g mask="url(#mask0_942_1168)">
<mask id="mask1_942_1168" style="mask-type:luminance" maskUnits="userSpaceOnUse" x="0" y="0" width="42" height="42">
<path d="M42 0H0V42H42V0Z" fill="white"/>
</mask>
<g mask="url(#mask1_942_1168)">
<path d="M15.1564 34.3597C27.0438 34.3597 33.5445 24.5079 33.5445 15.9648C33.5445 15.685 33.5389 15.4065 33.5263 15.1291C34.7912 14.2135 35.8829 13.0799 36.75 11.7813C35.592 12.2963 34.3458 12.6429 33.0386 12.7992C34.373 11.9989 35.3973 10.7326 35.8806 9.22334C34.612 9.97619 33.2241 10.5069 31.7768 10.7926C30.5975 9.53596 28.9184 8.75 27.0594 8.75C23.4904 8.75 20.5963 11.6453 20.5963 15.2142C20.5963 15.7216 20.653 16.215 20.7639 16.6884C15.3925 16.418 10.6297 13.8454 7.44207 9.93356C6.86795 10.9202 6.56598 12.0415 6.56698 13.183C6.56698 15.4261 7.70789 17.4062 9.44296 18.5647C8.41664 18.5332 7.41286 18.256 6.51602 17.756C6.51506 17.7832 6.51506 17.8096 6.51506 17.8386C6.51506 20.9696 8.74272 23.5837 11.6999 24.1761C11.1445 24.3275 10.5714 24.4039 9.99574 24.4036C9.58003 24.4036 9.17488 24.3626 8.78113 24.287C9.60391 26.8559 11.9897 28.7252 14.8184 28.7774C12.6064 30.5118 9.82 31.5448 6.79157 31.5448C6.27641 31.5452 5.76165 31.5154 5.25 31.4552C8.11022 33.2892 11.5061 34.3597 15.1564 34.3597Z" fill="#2E95F4"/>
</g>
</g>
</g>
<defs>
<clipPath id="clip0_942_1168">
<rect width="42" height="42" fill="white"/>
</clipPath>
</defs>
</svg>
