<svg width="91" height="25" viewBox="0 0 91 25" fill="none" xmlns="http://www.w3.org/2000/svg">
<g clip-path="url(#clip0_52_402)">
<g clip-path="url(#clip1_52_402)">
<path d="M21.4163 17.0921L21.4041 17.0516L29.4474 9.76719V6.25726H16.5422V9.76719H24.2512L24.2634 9.80108L16.2983 17.0921V20.602H29.5773V17.0921H21.4163ZM37.4991 5.92303C36.0096 5.92303 34.796 6.14428 33.8592 6.58867C32.9865 6.97469 32.2512 7.61303 31.7474 8.4199C31.2663 9.23053 30.9651 10.1325 30.8606 11.0674L34.7772 11.6125C34.9184 10.7868 35.2018 10.2022 35.6264 9.85757C36.1094 9.49698 36.7054 9.31527 37.3099 9.34257C38.1035 9.34257 38.6807 9.55253 39.0394 9.97338C39.3934 10.3933 39.5742 10.9751 39.5742 11.7434V12.1247H35.81C33.8931 12.1247 32.5167 12.5456 31.6797 13.3863C30.8417 14.2271 30.4237 15.3371 30.4256 16.7155C30.4256 18.1277 30.8436 19.1794 31.6797 19.8686C32.5148 20.5578 33.5655 20.9005 34.8328 20.8958C36.4032 20.8958 37.6111 20.3619 38.4566 19.2924C38.9556 18.6362 39.3115 17.8839 39.5036 17.0836H39.6467L40.1861 20.5935H43.7337V11.7048C43.7337 9.86793 43.2451 8.44532 42.2659 7.43603C41.2868 6.42673 39.6975 5.92303 37.4991 5.92303ZM38.7391 16.8802C38.176 17.3444 37.4388 17.5751 36.5218 17.5751C35.7649 17.5751 35.2385 17.4442 34.9448 17.1825C34.6539 16.932 34.4919 16.5658 34.5004 16.1835C34.4835 15.8239 34.6172 15.4736 34.8685 15.2147C35.1406 14.9624 35.505 14.8306 35.8769 14.8513H39.5798V15.0933C39.5949 15.7862 39.2842 16.4472 38.7391 16.8802ZM65.1878 6.25726H60.9962V20.6039H65.1878V6.25726ZM89.9352 6.25726C88.7517 6.25726 87.8178 6.67058 87.1352 7.49722C86.6456 8.09131 86.2728 8.96879 86.0176 10.1306H85.8943L85.3463 6.25726H81.7667V20.602H85.9583V13.2451C85.9583 12.3187 86.1777 11.6069 86.6173 11.1117C87.0561 10.6183 87.8667 10.3698 89.0474 10.3698H90.6385V6.25726H89.9352ZM77.6109 6.72613C76.6318 6.14993 75.3974 5.86371 73.908 5.86371C71.5618 5.86371 69.7258 6.52465 68.4002 7.84652C67.0746 9.16745 66.4117 10.9893 66.4117 13.311C66.3778 14.7157 66.6885 16.1073 67.3146 17.3651C67.8899 18.4893 68.7843 19.4214 69.8859 20.0456C70.9959 20.6802 72.3168 20.9984 73.8477 20.9993C75.1724 20.9993 76.2787 20.7978 77.1665 20.3939C78.0007 20.0324 78.7275 19.4647 79.2783 18.7444C79.8018 18.0392 80.1906 17.2437 80.426 16.3982L76.8135 15.3983C76.6619 15.9482 76.3691 16.449 75.9642 16.8529C75.5566 17.2559 74.8721 17.4583 73.9136 17.4583C72.7735 17.4583 71.9233 17.1354 71.364 16.4895C70.9583 16.0225 70.7031 15.356 70.5911 14.4917H80.4806C80.5211 14.0887 80.5428 13.7497 80.5428 13.4777V12.5842C80.5663 11.3837 80.3159 10.1927 79.8093 9.10343C79.3339 8.10826 78.5675 7.27974 77.6109 6.72613ZM73.7865 9.2842C75.4859 9.2842 76.4501 10.1108 76.6779 11.766H70.6655C70.7615 11.2133 70.9921 10.6927 71.3386 10.2502C71.8903 9.60431 72.7057 9.28231 73.7865 9.2842ZM63.1362 0.475488C62.4998 0.452892 61.8822 0.688268 61.4218 1.12607C60.9698 1.56763 60.725 2.17773 60.7486 2.80759C60.725 3.44028 60.9689 4.05509 61.4227 4.5023C61.8765 4.9514 62.497 5.19242 63.1362 5.16794C63.7718 5.19242 64.3875 4.95046 64.8357 4.5023C65.2791 4.04944 65.5164 3.43746 65.4919 2.80759C65.5211 2.18055 65.2829 1.5714 64.8357 1.12889C64.3856 0.684502 63.7708 0.448185 63.1381 0.47643L63.1362 0.475488ZM54.4782 5.86371C53.0509 5.86371 51.9032 6.30716 51.036 7.19406C50.3939 7.85217 49.9241 8.83227 49.6238 10.1372H49.4891L48.9412 6.26291H45.3616V24.7267H49.5532V17.1222H49.7057C49.8347 17.6287 50.0136 18.1221 50.2414 18.5928C50.5973 19.3621 51.1791 20.006 51.9098 20.4382C52.6686 20.8477 53.5235 21.0521 54.3868 21.0295C56.1418 21.0295 57.4778 20.3535 58.3958 19.0005C59.3137 17.6485 59.7723 15.7617 59.7723 13.3411C59.7723 11.0015 59.3288 9.17122 58.441 7.8484C57.5522 6.52559 56.2313 5.86371 54.4782 5.86371ZM54.9028 16.2598C54.4142 16.9603 53.6497 17.3105 52.6083 17.3105C51.7384 17.351 50.9023 16.9735 50.361 16.2956C49.8177 15.6215 49.5475 14.6988 49.5485 13.5276V13.2536C49.5485 12.0645 49.8196 11.154 50.361 10.5223C50.9014 9.89052 51.6508 9.57795 52.6083 9.58454C53.6675 9.58454 54.4377 9.91689 54.9179 10.5835C55.398 11.2482 55.6381 12.1765 55.6381 13.3675C55.6409 14.599 55.3971 15.5631 54.9066 16.2598H54.9028ZM14.6752 17.0911H0.172241V20.6058H14.6752V17.0911Z" fill="black"/>
</g>
</g>
<defs>
<clipPath id="clip0_52_402">
<rect width="90.2667" height="24.4472" fill="white" transform="translate(0.172241 0.473633)"/>
</clipPath>
<clipPath id="clip1_52_402">
<rect width="90.2667" height="24.2494" fill="white" transform="translate(0.172241 0.473633)"/>
</clipPath>
</defs>
</svg>
